<?xml version="1.0" standalone="no"?>
<!DOCTYPE svg PUBLIC "-//W3C//DTD SVG 20010904//EN"
 "http://www.w3.org/TR/2001/REC-SVG-20010904/DTD/svg10.dtd">
<svg version="1.0" xmlns="http://www.w3.org/2000/svg"
 width="500.000000pt" height="500.000000pt" viewBox="0 0 500.000000 500.000000"
 preserveAspectRatio="xMidYMid meet">
<metadata>
Created by potrace 1.16, written by Peter Selinger 2001-2019
</metadata>
<g transform="translate(0.000000,500.000000) scale(0.100000,-0.100000)"
fill="#000000" stroke="none">
<path d="M2269 4066 c-20 -14 -44 -41 -54 -61 -46 -98 -316 -769 -444 -1105
-231 -608 -564 -1530 -584 -1620 -15 -69 -2 -115 46 -163 41 -41 50 -44 337
-130 306 -90 365 -101 420 -72 62 32 71 52 200 455 109 340 122 376 135 381
20 8 105 -265 236 -760 41 -155 82 -287 94 -305 27 -41 91 -76 138 -76 50 0
97 18 387 144 277 122 305 137 331 180 36 59 29 92 -96 476 -83 256 -255 806
-255 818 0 5 87 62 193 125 493 295 785 472 823 498 60 41 78 74 78 139 -1 49
-10 74 -74 200 -128 255 -209 406 -228 423 -34 31 -94 49 -136 42 -37 -5 -321
-149 -636 -320 -270 -147 -324 -175 -331 -173 -6 3 72 197 176 438 39 92 47
134 34 182 -25 95 -59 116 -329 201 -96 30 -208 67 -249 81 -97 34 -164 34
-212 2z m351 -232 c129 -41 241 -77 248 -79 6 -3 12 -13 12 -23 0 -17 -113
-295 -306 -754 -73 -176 -81 -198 -66 -198 4 0 97 50 207 110 l200 109 17 -33
c26 -51 15 -71 -47 -85 -76 -17 -81 -27 -55 -105 23 -71 45 -86 119 -86 44 0
56 8 66 40 12 39 25 50 62 50 29 0 36 4 45 31 10 28 13 30 47 24 35 -6 37 -5
59 42 42 90 23 133 -74 167 -32 12 -59 27 -59 34 0 7 104 68 230 135 127 68
289 154 360 193 72 38 135 70 142 72 9 3 185 -328 240 -451 12 -27 11 -28 -55
-71 -37 -23 -86 -53 -109 -67 l-41 -23 -21 24 c-11 14 -18 32 -14 40 3 8 8 30
12 49 5 27 12 36 34 42 38 10 57 28 74 67 12 29 11 36 -6 70 -16 32 -27 40
-68 50 -68 18 -109 0 -144 -62 -23 -41 -33 -37 -39 14 -5 43 -7 45 -39 48 -24
3 -45 16 -77 49 -25 25 -46 44 -48 42 -2 -2 -13 -34 -25 -71 -16 -48 -28 -68
-39 -68 -9 0 -35 -6 -56 -14 -29 -10 -40 -20 -43 -37 -2 -13 -28 -102 -58
-197 -30 -95 -55 -178 -55 -183 0 -17 18 -10 93 36 41 25 79 45 85 45 29 0 64
27 82 65 29 61 26 82 -14 99 -26 11 -42 28 -61 66 -15 29 -24 54 -21 57 3 3
33 -9 67 -26 34 -17 74 -31 89 -31 26 0 27 -1 22 -52 -2 -29 -10 -71 -17 -93
-14 -44 -12 -55 12 -55 13 0 14 -8 9 -40 -5 -33 -3 -41 14 -50 11 -6 20 -14
20 -18 0 -4 -26 -23 -57 -41 -67 -39 -407 -247 -439 -268 -20 -13 -23 -11 -43
20 -20 33 -97 77 -135 77 -22 0 -73 -165 -57 -184 6 -8 18 -53 27 -100 21
-121 28 -136 62 -136 28 0 29 -2 81 -171 29 -94 50 -173 47 -176 -3 -4 -16 3
-29 15 -13 12 -31 22 -40 22 -11 0 -30 27 -55 78 l-39 77 15 47 c9 27 13 51 9
54 -12 12 -152 44 -195 44 l-44 0 7 -52 c5 -29 9 -93 10 -143 1 -63 6 -100 18
-122 17 -31 20 -33 76 -33 32 0 60 -2 62 -4 3 -3 3 -23 1 -45 -4 -37 -7 -41
-38 -47 -19 -3 -34 -9 -34 -12 0 -4 18 -42 41 -85 23 -43 37 -82 33 -87 -5 -4
-44 -33 -86 -65 -43 -31 -78 -61 -78 -66 0 -5 12 -58 26 -119 l26 -110 33 0
c58 0 185 22 185 32 0 5 -13 29 -30 53 -37 54 -38 65 -1 65 16 0 31 6 35 15 3
10 19 15 44 15 22 0 60 3 85 6 40 6 47 11 57 38 7 17 15 40 20 51 6 15 15 -3
39 -80 17 -54 31 -103 31 -107 0 -4 -14 -8 -31 -8 -76 0 -119 -110 -64 -165
13 -14 30 -25 37 -25 7 0 8 -3 3 -9 -16 -15 -436 -193 -442 -187 -11 11 -185
648 -178 654 2 2 27 -3 56 -11 29 -9 56 -14 61 -11 10 6 10 165 0 181 -4 6
-42 21 -85 34 -61 17 -80 20 -86 10 -5 -7 -21 24 -41 81 -35 100 -210 540
-217 548 -2 3 -9 -3 -14 -13 -13 -23 -23 -22 -38 6 -18 35 -76 69 -115 69 -47
0 -120 -43 -135 -80 -17 -42 1 -103 40 -136 24 -21 41 -26 82 -26 29 1 63 7
77 15 50 29 61 71 -141 -546 -82 -251 -149 -460 -149 -466 0 -20 -23 -31 -49
-23 -14 5 -132 41 -261 80 -129 40 -238 75 -243 79 -4 4 23 94 59 200 l67 193
21 -25 c22 -26 75 -57 99 -57 18 0 77 83 77 108 0 10 -10 34 -23 53 -22 32
-27 34 -79 34 l-56 0 43 120 c107 300 374 1013 473 1265 49 123 51 126 98 152
59 33 61 33 69 7 10 -30 27 -18 43 29 7 23 18 42 22 42 13 0 50 88 50 119 0
20 -12 34 -51 60 -27 19 -48 39 -45 45 2 6 32 82 66 169 35 86 68 157 74 157
6 0 116 -34 246 -76z"/>
<path d="M1896 1902 c-31 -38 -56 -76 -56 -84 0 -17 185 -89 207 -81 11 4 63
144 63 169 0 7 -26 21 -57 32 -105 38 -96 40 -157 -36z"/>
</g>
</svg>
